<svg xmlns="http://www.w3.org/2000/svg" version="1.1" xmlns:xlink="http://www.w3.org/1999/xlink" width="1593.05" height="1466.14"><svg xmlns="http://www.w3.org/2000/svg" version="1.1" style="display: block;" preserveAspectRatio="none" viewBox="227.98 346.09 1593.05 1466.14">
<path transform="translate(0,0)" fill="rgb(46,155,209)" d="M 817.749 428.284 C 871.39 378.323 950.285 345.137 1023.87 346.108 C 1041.11 346.285 1064.61 347.434 1082.23 351.26 C 1135.91 362.913 1189.43 390.32 1229.75 427.723 C 1231.67 429.503 1234.57 433.164 1236.19 435.261 C 1267.28 460.283 1301.33 519.138 1314.6 557.308 C 1322.42 580.371 1327.71 604.211 1330.41 628.413 C 1332.11 644.001 1332.28 658.172 1332.05 673.828 C 1331.89 684.731 1332.48 697.479 1331.57 708.288 C 1328.26 747.501 1315.2 784.093 1298.45 819.415 C 1294.23 828.323 1289.53 837.156 1284.89 845.825 C 1281.98 851.269 1273.07 862.179 1271.5 866.786 C 1271.2 861.752 1270.24 858.221 1268.38 853.605 C 1249.9 807.858 1210.88 772.163 1158.8 777.179 C 1138.23 779.159 1126.47 785.737 1108.27 793.858 C 1059.86 834.457 1040.29 865.831 1026.56 927.625 C 1024.92 939.175 1023.53 951.484 1024.23 963.157 C 1047.66 1000.44 1101.76 1055.97 1139.76 1077.77 C 1141.49 1079.72 1144.74 1083.13 1146.21 1085.05 L 1146.07 1090.52 C 1140.1 1108.72 1151.24 1162.28 1157.29 1181.36 C 1161.19 1193.55 1166.06 1205.41 1171.88 1216.81 C 1189.39 1251.3 1216.59 1290.51 1244.8 1317.02 C 1291.93 1361.3 1304.8 1355.43 1334.89 1416.47 C 1342.75 1423.8 1366.14 1496.24 1362.58 1506.24 C 1361.13 1507.16 1360.29 1508.12 1358.84 1507.71 C 1344.77 1503.72 1320.22 1492.54 1306.9 1486.42 C 1220.46 1446.69 1141.73 1380.86 1079.63 1309.19 C 1068.7 1295.74 1058.07 1282.07 1047.86 1268.08 C 1039.6 1256.76 1032.25 1242.78 1022.89 1232.6 C 1013.85 1245.99 1003.18 1265.32 993.772 1277.48 C 925.785 1365.34 834.33 1445.94 731.429 1490 C 716.444 1496.41 700.973 1503.65 685.458 1508.56 C 684.045 1488.99 701.061 1431.98 714 1416.57 C 716.066 1408.61 720.642 1402.97 724.347 1396.12 C 737.381 1372.04 752.565 1358.73 774.222 1342.43 C 787.22 1332.64 803.985 1317.4 815.374 1305.15 C 850.085 1267.89 876.16 1223.44 891.743 1174.96 C 897.499 1157.39 908.902 1100.48 901.41 1085.82 C 902.185 1084.09 918.496 1063.78 921.002 1060.3 C 941.346 1032.04 951.458 1002.67 955.072 968.246 C 956.364 955.933 957.167 910.933 950.034 902.048 C 945.312 1008.17 826.407 1013.9 808.893 918.596 C 799.222 927.757 788.189 938.281 781.622 950.035 C 772.245 926.848 773.79 905.458 774.071 880.952 C 774.149 874.132 777.029 872.558 775.513 865.314 C 773.423 862.987 764.592 846.956 762.266 842.986 C 701.059 738.522 698.29 607.36 759.077 502.037 C 775.418 473.725 794.735 451.741 817.749 428.284 z"></path>
<path transform="translate(0,0)" fill="rgb(111,184,82)" d="M 1023.87 346.108 C 1041.11 346.285 1064.61 347.434 1082.23 351.26 C 1135.91 362.913 1189.43 390.32 1229.75 427.723 C 1231.67 429.503 1234.57 433.164 1236.19 435.261 C 1267.28 460.283 1301.33 519.138 1314.6 557.308 C 1322.42 580.371 1327.71 604.211 1330.41 628.413 C 1332.11 644.001 1332.28 658.172 1332.05 673.828 C 1331.89 684.731 1332.48 697.479 1331.57 708.288 C 1328.26 747.501 1315.2 784.093 1298.45 819.415 C 1294.23 828.323 1289.53 837.156 1284.89 845.825 C 1281.98 851.269 1273.07 862.179 1271.5 866.786 C 1271.2 861.752 1270.24 858.221 1268.38 853.605 C 1249.9 807.858 1210.88 772.163 1158.8 777.179 C 1138.23 779.159 1126.47 785.737 1108.27 793.858 C 1059.86 834.457 1040.29 865.831 1026.56 927.625 C 1026.43 926.156 1025.92 924.472 1025.7 923.018 C 1023.02 905.59 1023.92 883.399 1023.89 865.549 L 1023.87 761.039 L 1023.87 346.108 z"></path>
<path transform="translate(0,0)" fill="rgb(244,126,27)" d="M 1236.19 435.261 C 1267.28 460.283 1301.33 519.138 1314.6 557.308 C 1322.42 580.371 1327.71 604.211 1330.41 628.413 C 1332.11 644.001 1332.28 658.172 1332.05 673.828 C 1331.89 684.731 1332.48 697.479 1331.57 708.288 C 1328.26 747.501 1315.2 784.093 1298.45 819.415 C 1294.23 828.323 1289.53 837.156 1284.89 845.825 C 1281.98 851.269 1273.07 862.179 1271.5 866.786 C 1271.2 861.752 1270.24 858.221 1268.38 853.605 C 1249.9 807.858 1210.88 772.163 1158.8 777.179 C 1138.23 779.159 1126.47 785.737 1108.27 793.858 C 1115.19 776.367 1177.04 713.3 1191.99 695.605 C 1252.92 623.501 1276.08 529.907 1234.54 441.885 C 1233.43 439.521 1235.17 437.097 1236.19 435.261 z"></path>
<path transform="translate(0,0)" fill="rgb(13,112,174)" d="M 1024.23 963.157 C 1047.66 1000.44 1101.76 1055.97 1139.76 1077.77 C 1141.49 1079.72 1144.74 1083.13 1146.21 1085.05 L 1146.07 1090.52 C 1140.1 1108.72 1151.24 1162.28 1157.29 1181.36 C 1161.19 1193.55 1166.06 1205.41 1171.88 1216.81 C 1189.39 1251.3 1216.59 1290.51 1244.8 1317.02 C 1291.93 1361.3 1304.8 1355.43 1334.89 1416.47 C 1342.75 1423.8 1366.14 1496.24 1362.58 1506.24 C 1361.13 1507.16 1360.29 1508.12 1358.84 1507.71 C 1344.77 1503.72 1320.22 1492.54 1306.9 1486.42 C 1220.46 1446.69 1141.73 1380.86 1079.63 1309.19 C 1068.7 1295.74 1058.07 1282.07 1047.86 1268.08 C 1039.6 1256.76 1032.25 1242.78 1022.89 1232.6 C 1013.85 1245.99 1003.18 1265.32 993.772 1277.48 C 925.785 1365.34 834.33 1445.94 731.429 1490 C 716.444 1496.41 700.973 1503.65 685.458 1508.56 C 684.045 1488.99 701.061 1431.98 714 1416.57 C 732.885 1409.48 749.775 1400.92 767.689 1391.76 C 881.541 1333.52 974.966 1229.96 1008.21 1104.98 C 1013.9 1082.92 1018.14 1060.5 1020.92 1037.89 C 1022.28 1027.31 1021.48 1013.61 1024.7 1003.8 C 1023.86 990.115 1023.96 976.838 1024.23 963.157 z"></path>
<path transform="translate(0,0)" fill="rgb(111,184,82)" d="M 1024.23 963.157 C 1047.66 1000.44 1101.76 1055.97 1139.76 1077.77 C 1141.49 1079.72 1144.74 1083.13 1146.21 1085.05 L 1146.07 1090.52 C 1140.1 1108.72 1151.24 1162.28 1157.29 1181.36 C 1161.19 1193.55 1166.06 1205.41 1171.88 1216.81 C 1189.39 1251.3 1216.59 1290.51 1244.8 1317.02 C 1291.93 1361.3 1304.8 1355.43 1334.89 1416.47 C 1328.05 1414.37 1312.1 1407 1305.28 1403.87 C 1257.93 1382.36 1214.09 1353.83 1175.24 1319.25 C 1079.58 1235.48 1032.94 1129.34 1024.7 1003.8 C 1023.86 990.115 1023.96 976.838 1024.23 963.157 z"></path>
<path transform="translate(0,0)" fill="rgb(13,112,174)" d="M 817.749 428.284 C 815.655 441.151 803.606 462.586 799.742 478.519 C 783.266 546.456 796.96 604.22 832.415 662.625 C 862.681 712.482 915.308 750.42 943.126 798.023 C 887.409 761.774 831.015 771.361 793.099 827.512 C 787.901 835.21 777.109 856.139 775.513 865.314 C 773.423 862.987 764.592 846.956 762.266 842.986 C 701.059 738.522 698.29 607.36 759.077 502.037 C 775.418 473.725 794.735 451.741 817.749 428.284 z"></path>
<path transform="translate(0,0)" fill="rgb(254,254,254)" d="M 808.893 918.596 L 808.772 917.635 C 805.628 890.583 809.747 865.083 826.944 843.772 C 862.491 799.72 922.597 813.645 942.305 864.559 C 947.882 878.966 948.598 886.986 950.034 902.048 C 945.312 1008.17 826.407 1013.9 808.893 918.596 z"></path>
<path transform="translate(0,0)" fill="rgb(22,61,96)" d="M 876.775 851.254 C 886.076 850.178 893.153 852.834 901.482 856.143 C 856.376 869.815 902.76 924.62 919.63 880.469 C 927.579 905.139 925.554 927.264 907.029 946.823 C 843.263 995.81 803.199 865.08 876.775 851.254 z"></path>
<path transform="translate(0,0)" fill="rgb(244,126,27)" d="M 1231.84 1002.64 C 1244.82 1031.19 1254.62 1047.53 1285.09 1058.87 C 1307.48 1067.49 1330.57 1068.9 1352.74 1058.18 C 1452.92 1009.57 1440.66 906.871 1402.84 820.385 C 1369.08 743.206 1375.26 628.842 1461.49 587.925 C 1480.36 578.974 1513.69 566.228 1534.61 569.237 C 1531.72 572.624 1531.37 571.206 1526.91 572.842 C 1509.9 579.079 1497.7 590.206 1489.4 606.063 C 1482.16 619.902 1482.41 629.555 1481.68 644.061 C 1456.87 669.876 1449.7 684.924 1450.74 720.444 C 1450.21 749.005 1464.24 773.779 1474.54 799.468 C 1502.69 869.678 1523.7 929.429 1502.43 1005.38 C 1474.08 1106.59 1384.05 1163.41 1286.61 1107.62 C 1278.56 1103.01 1269.47 1096.37 1261.31 1092.27 C 1283.96 1123.19 1334.79 1144.75 1372.14 1147.53 C 1366.45 1148.51 1358.92 1151.3 1352.73 1152.77 C 1335.79 1156.88 1318.41 1158.84 1300.98 1158.61 C 1237.47 1157.76 1189.68 1129.5 1146.21 1085.05 C 1144.74 1083.13 1141.49 1079.72 1139.76 1077.77 C 1101.76 1055.97 1047.66 1000.44 1024.23 963.157 C 1023.53 951.484 1024.92 939.175 1026.56 927.625 C 1040.29 865.831 1059.86 834.457 1108.27 793.858 C 1126.47 785.737 1138.23 779.159 1158.8 777.179 C 1210.88 772.163 1249.9 807.858 1268.38 853.605 C 1270.24 858.221 1271.2 861.752 1271.5 866.786 C 1277.35 905.42 1277.94 922.573 1263.9 958.388 C 1257.93 973.751 1243.44 991.052 1231.84 1002.64 z"></path>
<path transform="translate(0,0)" fill="rgb(250,183,20)" d="M 1108.27 793.858 C 1126.47 785.737 1138.23 779.159 1158.8 777.179 C 1210.88 772.163 1249.9 807.858 1268.38 853.605 C 1270.24 858.221 1271.2 861.752 1271.5 866.786 C 1277.35 905.42 1277.94 922.573 1263.9 958.388 C 1255.54 943.284 1249.98 935.406 1239.02 921.961 C 1218.72 1013.48 1103.8 1008.14 1097.99 900.319 C 1080.74 946.298 1097.94 1024.73 1128.66 1061.73 C 1131.76 1065.47 1137.9 1073.94 1139.76 1077.77 C 1101.76 1055.97 1047.66 1000.44 1024.23 963.157 C 1023.53 951.484 1024.92 939.175 1026.56 927.625 C 1040.29 865.831 1059.86 834.457 1108.27 793.858 z"></path>
<path transform="translate(0,0)" fill="rgb(254,254,254)" d="M 1097.99 900.319 C 1101.4 871.662 1107.61 850.082 1130.96 831.026 C 1159.86 807.43 1199.52 815.816 1221.54 844.269 C 1238.31 866 1243.67 895.172 1239.02 921.961 C 1218.72 1013.48 1103.8 1008.14 1097.99 900.319 z"></path>
<path transform="translate(0,0)" fill="rgb(22,61,96)" d="M 1162.95 851.235 C 1174.11 850.298 1179.15 851.835 1189.02 856.262 C 1188.19 856.506 1187.37 856.759 1186.55 857.022 C 1146.65 869.973 1187.88 923.577 1207.24 881.483 C 1213.74 906.65 1213.12 926.42 1194.07 946.565 C 1132.45 995.214 1088.89 869.167 1162.95 851.235 z"></path>
<path transform="translate(0,0)" fill="rgb(250,183,20)" d="M 1494.09 1273.61 C 1506.08 1288.65 1516.25 1284.82 1520.7 1291.58 C 1520.96 1297.41 1515.14 1303.15 1513.16 1309.06 C 1511.84 1313 1512.22 1311.88 1514.52 1316.34 L 1513.89 1317.82 C 1510.59 1316.32 1498.77 1304.68 1495.83 1301.4 C 1473.73 1275.2 1458.83 1230.98 1461.37 1196.87 C 1473.57 1035.72 1673.46 995.933 1771.04 1109.92 C 1813.99 1160.1 1824.41 1215.07 1820.16 1279.24 C 1819.31 1337.62 1779.53 1404.99 1738.22 1444.14 C 1724.84 1456.81 1709.79 1470.16 1694.82 1481.08 C 1647.97 1511.07 1596.55 1527.45 1541.21 1531.69 C 1527.8 1532.72 1514.41 1532.29 1501.13 1532.77 C 1500.86 1514.33 1500.24 1474.65 1492.28 1458.48 C 1491.37 1452.17 1487.55 1443.77 1490.19 1438.04 L 1493.11 1437.32 C 1508.76 1435.31 1525.19 1436.64 1540.8 1436.16 C 1574.28 1435.12 1610.38 1426.02 1639.01 1408.63 C 1683.27 1381.74 1725.48 1337.38 1737.1 1285.5 C 1745.49 1248.02 1743 1210.02 1722.48 1176.92 C 1704.89 1148.74 1676.71 1128.83 1644.28 1121.68 C 1617.77 1115.76 1587.83 1121.68 1565.24 1136.54 C 1549.65 1146.79 1548.81 1153.65 1538.51 1166.64 C 1528.95 1178.7 1515.16 1184.27 1511.25 1202.19 C 1513.23 1208.32 1518.7 1216.74 1522.04 1222.89 C 1514.55 1226.01 1512.01 1226.87 1504.12 1228.64 C 1498.81 1233.95 1498.02 1234.63 1494.12 1241.13 C 1493.51 1252.5 1493.79 1262.25 1494.09 1273.61 z"></path>
<path transform="translate(0,0)" fill="rgb(13,112,174)" d="M 1511.52 1445.76 C 1561.71 1465.53 1627.54 1462.38 1677.51 1443.05 C 1733.22 1421.26 1778.37 1378.8 1803.54 1324.54 C 1810.63 1309.1 1813.99 1292.73 1819.34 1281 L 1820.16 1279.24 C 1819.31 1337.62 1779.53 1404.99 1738.22 1444.14 C 1724.84 1456.81 1709.79 1470.16 1694.82 1481.08 C 1647.97 1511.07 1596.55 1527.45 1541.21 1531.69 C 1527.8 1532.72 1514.41 1532.29 1501.13 1532.77 C 1500.86 1514.33 1500.24 1474.65 1492.28 1458.48 C 1491.37 1452.17 1487.55 1443.77 1490.19 1438.04 L 1493.11 1437.32 C 1497.41 1440.14 1506.48 1444.06 1511.52 1445.76 z"></path>
<path transform="translate(0,0)" fill="rgb(30,106,155)" d="M 1493.11 1437.32 C 1497.41 1440.14 1506.48 1444.06 1511.52 1445.76 C 1504.66 1446.14 1499.69 1445.89 1494.17 1449.75 C 1492.03 1452.37 1492.98 1455.1 1492.28 1458.48 C 1491.37 1452.17 1487.55 1443.77 1490.19 1438.04 L 1493.11 1437.32 z"></path>
<path transform="translate(0,0)" fill="rgb(111,184,82)" d="M 229.771 1289.62 C 227.432 1281.64 227.765 1228.86 228.64 1218.67 C 230.496 1197.08 243.651 1163.96 254.116 1144.7 C 278.597 1099.23 320.389 1065.58 370.025 1051.35 C 414.655 1038.31 466.63 1044.61 507.105 1067.06 C 542.235 1086.44 568.261 1118.94 579.49 1157.45 C 592.992 1204.85 583.731 1274.8 545.135 1308.77 C 548.257 1303.5 552.834 1295.43 553.765 1289.46 C 556.305 1273.16 556.759 1249.06 553.054 1233.33 C 546.579 1205.28 528.313 1190.24 511.056 1170.24 C 498.075 1155.2 500.158 1145.18 478.588 1133.47 C 419.929 1101.61 351.645 1128.74 321.277 1185.84 C 307.841 1211.1 306.366 1228.58 307.956 1256.65 C 308.342 1266.84 307.011 1278.07 310.445 1288.11 C 329.363 1343.41 362.972 1383 413.854 1411.06 C 452.537 1432.39 488.635 1437.72 532.213 1437.29 C 537.595 1437.24 551.888 1437.25 556.249 1436.11 C 558.81 1435.76 557.664 1435.49 559.724 1436.72 C 560.791 1443.04 554.082 1457.38 552.738 1464.69 C 548.265 1488.98 547.652 1508 547.091 1532.55 C 533.312 1532.28 519.835 1533.26 505.889 1532.16 C 439.334 1526.75 376.061 1500.97 324.675 1458.33 C 275.904 1418.23 236.103 1352.95 229.771 1289.62 z"></path>
<path transform="translate(0,0)" fill="rgb(13,112,174)" d="M 229.771 1289.62 C 234.202 1294.89 238.909 1310.43 241.981 1317.59 C 273.736 1391.57 340.808 1444.61 422.49 1456.67 C 459.704 1462.1 497.671 1458.81 533.399 1447.07 C 541.188 1444.53 550.115 1441.61 556.249 1436.11 C 558.81 1435.76 557.664 1435.49 559.724 1436.72 C 560.791 1443.04 554.082 1457.38 552.738 1464.69 C 548.265 1488.98 547.652 1508 547.091 1532.55 C 533.312 1532.28 519.835 1533.26 505.889 1532.16 C 439.334 1526.75 376.061 1500.97 324.675 1458.33 C 275.904 1418.23 236.103 1352.95 229.771 1289.62 z"></path>
<path transform="translate(0,0)" fill="rgb(13,112,174)" d="M 581.108 585.755 C 605.087 594.307 628.001 617.452 641.553 638.707 C 661.112 668.62 667.925 711.362 663.795 746.845 C 653.696 833.606 581.753 920.935 636.49 1007.71 C 665.537 1053.76 728.448 1084.91 778.88 1052.46 C 797.994 1040.16 808.996 1021.66 813.76 999.799 C 797.813 982.339 788.776 973.048 781.622 950.035 C 788.189 938.281 799.222 927.757 808.893 918.596 C 826.407 1013.9 945.312 1008.17 950.034 902.048 C 957.167 910.933 956.364 955.933 955.072 968.246 C 951.458 1002.67 941.346 1032.04 921.002 1060.3 C 918.496 1063.78 902.185 1084.09 901.41 1085.82 L 898.665 1088.71 C 890.229 1095.69 882.934 1103.59 874.53 1110.56 C 849.487 1131.32 826.503 1141.11 796.798 1152.15 C 795.341 1152.52 793.881 1152.88 792.419 1153.23 C 762.747 1160.36 703.704 1162.5 678.001 1146.8 C 720.154 1141.75 767.233 1122.35 792.032 1086.27 C 643.136 1205.85 516.108 1059.3 540.007 902.994 C 545.205 877.355 554.157 847.549 563.842 823.587 C 586.148 768.393 616.782 716.905 581.701 659.172 C 580.391 657.016 581.039 594.25 581.108 585.755 z"></path>
<path transform="translate(0,0)" fill="rgb(111,184,82)" d="M 621.306 1346 C 625.444 1347.52 637.613 1345.56 642.703 1344.97 C 669.676 1342.05 696.228 1336.06 721.846 1327.13 C 733.1 1323.29 768.909 1307.22 774.061 1307.5 C 735.394 1340.88 704.404 1378.03 684.806 1425.78 C 682.025 1432.55 678.015 1441.99 676.358 1448.96 C 676.228 1449.59 676.098 1450.23 675.968 1450.87 C 657.292 1502.5 655.128 1563.47 674.798 1615.11 C 680.269 1629.47 684.916 1644.14 693.693 1657.16 C 718.019 1697.38 753.505 1725.86 799.861 1736.2 C 829.491 1742.81 869.643 1740.08 895.22 1722.68 C 921.659 1704.7 941.936 1679.11 948.614 1647.46 C 956.005 1612.42 950.976 1584.75 931.05 1555.01 C 918.482 1536.25 900.986 1520.27 879.955 1511.22 C 871.775 1507.69 862.697 1506.81 854.876 1503.1 C 900.049 1502.73 928.784 1505.38 961.908 1539.41 C 1020.47 1599.57 1011.22 1703.12 953.169 1760.1 C 911.047 1801.45 861.528 1813.49 804.211 1811.29 C 795.288 1811 792.078 1811.66 782.943 1809.44 C 774.489 1809.09 763.98 1806.21 755.779 1804.13 C 737.07 1800.03 699.61 1783.44 684.389 1772.32 C 623.695 1728.2 583.092 1661.71 571.572 1587.57 C 568.534 1567.99 567.6 1513.43 569.815 1493.91 C 574.619 1451.61 596.39 1379.91 621.306 1346 z"></path>
<path transform="translate(0,0)" fill="rgb(244,126,27)" d="M 621.306 1346 C 625.444 1347.52 637.613 1345.56 642.703 1344.97 C 669.676 1342.05 696.228 1336.06 721.846 1327.13 C 733.1 1323.29 768.909 1307.22 774.061 1307.5 C 735.394 1340.88 704.404 1378.03 684.806 1425.78 C 682.025 1432.55 678.015 1441.99 676.358 1448.96 C 666.28 1453.7 664.104 1463.8 660.213 1473.77 C 613.066 1594.54 636.019 1730.91 757.685 1796.5 C 760.227 1799.18 761.826 1799.74 761.755 1802.4 C 759.268 1803.33 758.427 1803.77 755.779 1804.13 C 737.07 1800.03 699.61 1783.44 684.389 1772.32 C 623.695 1728.2 583.092 1661.71 571.572 1587.57 C 568.534 1567.99 567.6 1513.43 569.815 1493.91 C 574.619 1451.61 596.39 1379.91 621.306 1346 z"></path>
<path transform="translate(0,0)" fill="rgb(172,149,57)" d="M 757.685 1796.5 C 764.907 1799.02 779.077 1802.86 781.895 1808.61 C 782.245 1808.89 782.594 1809.16 782.943 1809.44 C 774.489 1809.09 763.98 1806.21 755.779 1804.13 C 758.427 1803.77 759.268 1803.33 761.755 1802.4 C 761.826 1799.74 760.227 1799.18 757.685 1796.5 z"></path>
<path transform="translate(0,0)" fill="rgb(111,184,82)" d="M 1272.03 1305.44 L 1273.43 1305.86 C 1286.71 1309.99 1302.57 1318.29 1316.22 1323.35 C 1354.86 1337.67 1386.13 1343.56 1426.77 1346.48 C 1442.14 1369.66 1455.67 1404 1463.82 1430.61 C 1501.7 1554.18 1473.86 1700.54 1358.66 1775.64 C 1331.47 1793.22 1300.74 1804.58 1268.66 1808.92 C 1210.9 1818.12 1157.22 1808.72 1109.82 1773.16 C 1042.76 1722.84 1023.73 1618.31 1074.98 1550.41 C 1093.13 1526.37 1125.74 1506.73 1155.79 1503.48 C 1125.35 1516.5 1112.71 1526.49 1113.44 1558.93 C 1113.51 1561.9 1103.69 1578.48 1102.14 1583.35 C 1085.28 1636.05 1105.9 1695.19 1154.19 1723.01 C 1184.7 1740.3 1220.87 1744.61 1254.58 1734.98 C 1297.72 1723.03 1337.33 1689.41 1358.19 1650.39 C 1393.57 1584.21 1391.98 1517.98 1372.47 1448.19 C 1348.39 1384.26 1322.91 1350.05 1272.03 1305.44 z"></path>
<path transform="translate(0,0)" fill="rgb(23,160,98)" d="M 1272.03 1305.44 L 1273.43 1305.86 C 1286.71 1309.99 1302.57 1318.29 1316.22 1323.35 C 1354.86 1337.67 1386.13 1343.56 1426.77 1346.48 C 1442.14 1369.66 1455.67 1404 1463.82 1430.61 C 1501.7 1554.18 1473.86 1700.54 1358.66 1775.64 C 1331.47 1793.22 1300.74 1804.58 1268.66 1808.92 C 1271.53 1804.57 1281.77 1801.6 1286.73 1799.21 C 1366.55 1760.79 1412.51 1675.35 1410.29 1588.11 C 1409.16 1544.06 1402.58 1506.82 1384.04 1466.82 C 1381.56 1461.47 1378.3 1451.85 1374.43 1448.05 L 1372.47 1448.19 C 1348.39 1384.26 1322.91 1350.05 1272.03 1305.44 z"></path>
<path transform="translate(0,0)" fill="rgb(250,183,20)" d="M 1146.21 1085.05 C 1189.68 1129.5 1237.47 1157.76 1300.98 1158.61 C 1318.41 1158.84 1335.79 1156.88 1352.73 1152.77 C 1358.92 1151.3 1366.45 1148.51 1372.14 1147.53 C 1392.08 1151.59 1432.92 1147.09 1452.8 1142.4 C 1448.91 1153.82 1444.36 1165.83 1443.91 1178.01 C 1443.29 1193.14 1444.56 1208.36 1443.88 1223.45 C 1443.66 1226.43 1440.75 1228.97 1438.18 1230.03 C 1427.2 1234.61 1413.89 1233.23 1402.44 1235.15 C 1384.79 1238.12 1373.79 1236.39 1357.32 1230.12 C 1329.84 1219.45 1304.4 1204.11 1282.14 1184.77 C 1274.8 1178.42 1263.82 1166.94 1256.45 1162.18 C 1277.62 1200.63 1315.34 1221.95 1347.7 1249.16 C 1375.7 1272.71 1410.9 1313.46 1426.77 1346.48 C 1386.13 1343.56 1354.86 1337.67 1316.22 1323.35 C 1302.57 1318.29 1286.71 1309.99 1273.43 1305.86 L 1272.03 1305.44 C 1257.74 1295.07 1254.39 1290.49 1241.82 1279.18 C 1200.33 1242.32 1171.35 1195.88 1155.79 1142.67 C 1152.03 1129.8 1150.92 1100.4 1146.07 1090.52 L 1146.21 1085.05 z"></path>
<path transform="translate(0,0)" fill="rgb(13,112,174)" d="M 435.075 1162.74 C 490.166 1159.03 537.892 1200.55 541.849 1255.62 C 545.807 1310.69 504.507 1358.6 449.453 1362.81 C 394.045 1367.05 345.755 1325.42 341.772 1270 C 337.789 1214.57 379.631 1166.47 435.075 1162.74 z M 447.89 1347.86 C 495.058 1344.1 530.145 1302.65 526.063 1255.51 C 521.98 1208.37 480.29 1173.57 433.178 1177.99 C 386.528 1182.35 352.144 1223.55 356.187 1270.23 C 360.23 1316.91 401.184 1351.58 447.89 1347.86 z"></path>
<path transform="translate(0,0)" fill="rgb(13,112,174)" d="M 436.281 1210.87 C 440.083 1210.74 441.637 1210.35 445.074 1212.03 C 447.861 1216.77 446.82 1251.53 446.786 1259.5 C 457.185 1269.03 469.964 1274.49 479.363 1284.16 C 481.136 1285.99 480.5 1288.06 480.17 1290.21 C 478.892 1290.57 474.201 1292.16 473.423 1291.59 C 460.446 1282.18 449.07 1275.46 434.844 1268.15 C 435.653 1251.53 434.519 1224.2 436.281 1210.87 z"></path>
<path transform="translate(0,0)" fill="rgb(30,106,155)" d="M 438.03 1187.49 C 447.643 1188.49 446.624 1195.42 443.451 1202.1 C 439.689 1202.27 438.854 1201.31 436.929 1198.54 C 436.085 1194.39 437.09 1191.7 438.03 1187.49 z"></path>
<path transform="translate(0,0)" fill="rgb(30,106,155)" d="M 368.426 1258.88 C 369.178 1258.83 369.93 1258.8 370.683 1258.78 C 375.172 1258.65 377.044 1259.05 380.107 1261.93 C 380.281 1265.6 380.583 1263.81 378.677 1267.38 C 374.897 1267.89 371.507 1268.52 368.395 1266.36 C 366.891 1262.37 367.31 1263.73 368.426 1258.88 z"></path>
<path transform="translate(0,0)" fill="rgb(30,106,155)" d="M 503.976 1259.19 C 508.877 1258.55 511.429 1257.7 515.136 1261.29 C 515.747 1264.35 515.571 1264.18 514.317 1267.1 C 509.601 1267.38 506.369 1268.02 502.557 1265.58 C 502.015 1262 502.209 1263.08 503.976 1259.19 z"></path>
<path transform="translate(0,0)" fill="rgb(30,106,155)" d="M 439.725 1325.38 C 444.288 1326.84 442.504 1325.58 445.469 1329.01 C 446.465 1332.86 446.128 1333.5 445.447 1337.56 C 440.366 1337.32 439.613 1337.93 437.426 1333.3 C 437.856 1329.15 437.953 1329.25 439.725 1325.38 z"></path>
<path transform="translate(0,0)" fill="rgb(13,112,174)" d="M 336.098 637.544 C 339.417 644.704 336.185 719.88 336.397 732.484 C 336.411 733.292 327.104 750.96 325.531 754.429 C 292.163 828.028 308.103 912.355 349.32 979.259 C 358.303 993.766 373.694 1016.35 385.362 1027.81 C 365.251 1027.91 329.776 1044.55 312.438 1054.18 L 310.344 1054.5 C 310.025 1054.25 309.706 1054 309.387 1053.74 C 274.088 1009.79 244.111 928.035 241.629 874.765 C 237.741 791.286 260.694 717.211 317.309 657.035 C 323.654 650.291 329.921 644.445 336.098 637.544 z"></path>
<path transform="translate(0,0)" fill="rgb(250,183,20)" d="M 1726.83 657.254 C 1723.85 652.668 1711.6 633.419 1701.11 639.102 C 1699 640.247 1699.91 640.607 1699.61 641.729 C 1703.93 651.463 1716.74 658.306 1714.48 670.914 C 1713.16 678.094 1706.69 687.608 1700.51 691.401 C 1682.41 702.502 1659.19 689.997 1649.39 673.862 C 1645.73 667.773 1643.21 661.067 1641.97 654.073 C 1640.32 644.794 1639.81 588.666 1641.73 578.48 C 1646.58 552.636 1691.55 543.081 1707.15 572.87 C 1706.12 576.285 1689.91 584.816 1685.36 586.699 C 1671.35 592.493 1658.92 638.988 1677.51 641.386 C 1681.34 639.477 1680.27 639.835 1683 635.796 C 1681.2 629.086 1680.31 623.788 1679.15 616.949 C 1680.16 614.67 1681.19 612.349 1682.3 610.16 C 1701.36 572.405 1751.59 586.719 1761.71 623.154 C 1764.91 634.674 1764.51 647.679 1758.73 657.79 C 1759.81 658.423 1760.86 659.09 1761.89 659.791 C 1790.65 679.563 1792.5 712.908 1771.9 739.735 C 1765.09 732.012 1745.96 701.774 1734.29 718.045 C 1734.53 724.152 1751.43 731.292 1756.04 739.935 C 1773.07 771.86 1757.84 791.787 1730.77 808.053 C 1729.2 792.833 1728.2 784.484 1718.87 771.818 C 1712.89 763.032 1701.45 755.674 1691.02 753.495 C 1692.49 747.485 1697.65 733.851 1686.84 732.7 C 1678.19 738.617 1684.16 747.28 1674.47 752.781 C 1668.19 755.795 1661.09 757.65 1662.57 765.907 C 1668.23 770.76 1673.19 767.688 1678.77 764.75 C 1694.94 765.576 1700.55 769.606 1712.46 780.341 C 1715.11 788.492 1718.07 798.892 1717.26 807.409 C 1715.3 827.818 1691.46 842.439 1672.09 839.48 C 1655.45 836.939 1642.32 825.159 1641.09 807.907 C 1640.55 800.373 1640.85 793.078 1640.88 785.544 L 1640.94 741.314 C 1640.96 733.639 1640.55 688.487 1641.43 683.675 C 1662.86 706.922 1668.46 701.973 1695.46 713.364 C 1697.89 714.388 1705.93 734.981 1713.12 731.189 C 1718.53 720.348 1708.48 710.904 1702.19 702.706 C 1721.1 689.574 1719.1 684.683 1731.32 666.745 C 1731.83 666.001 1743.92 658.629 1746.18 656.951 L 1747.18 656.204 C 1748.38 651.407 1751.14 644.037 1746.32 640.865 C 1740.98 641.606 1732.03 652.449 1726.83 657.254 z"></path>
<path transform="translate(0,0)" fill="rgb(250,183,20)" d="M 1583.62 555.18 C 1591.75 554.592 1599.67 554.54 1607.18 558.265 C 1614.12 561.703 1618.77 567.787 1621.16 575.067 C 1624.17 584.278 1624.16 640.821 1622.81 652.659 C 1622.1 659.159 1620.16 665.464 1617.08 671.233 C 1610.64 683.348 1604.8 688.113 1591.01 693.441 C 1570.1 701.522 1542.92 679.097 1553.22 657.606 C 1555.49 652.888 1565.47 648.986 1563.75 641.803 C 1560.62 638.423 1562.07 639.122 1557.98 637.858 C 1549.12 639.137 1542.42 649.193 1537.18 656.061 C 1530.13 651.253 1528.89 648.169 1523.37 641.733 C 1521.2 641.313 1520.09 641.048 1518.21 642.77 C 1507.95 652.16 1532.56 665.926 1537.21 668.743 C 1542.87 685.381 1548.13 691.862 1560.51 704.002 C 1555.69 710.581 1545.8 720.652 1550.04 728.577 C 1552.82 730.207 1554.91 731.932 1558.02 731.84 C 1561.66 728.788 1564.31 719.281 1568.3 714.078 C 1573.7 706.173 1584.81 707.632 1592.97 705.823 C 1607.4 702.622 1616.74 690.924 1624.46 679.495 C 1622.71 693.344 1623.12 710.188 1623.09 724.406 L 1623.25 797.254 C 1623.27 816.52 1621.58 822.332 1607.34 836.601 C 1598.22 838.912 1591.31 842.777 1581.24 841.251 C 1570.32 839.594 1561.26 833.307 1554.85 824.5 C 1546.25 812.699 1546.05 804.144 1548.27 790.69 C 1552.78 777.959 1559.55 773.509 1570.47 767.102 C 1578.8 766.853 1599.18 769.692 1604.46 764.958 C 1604.74 761.306 1604.59 762.372 1602.39 758.571 C 1598.69 756.108 1586.91 754.474 1586.73 754.274 C 1582.87 750.014 1583.36 733.4 1575.77 732.246 C 1569.32 737.064 1571.22 745.574 1571.6 752.756 C 1543.75 765.546 1537.88 776.78 1534.98 806.46 C 1518.57 800.179 1508.46 791.875 1503.92 773.655 C 1500.8 761.178 1504.25 748.262 1511.17 737.598 L 1512.21 736.015 C 1516.89 728.794 1529.45 724.265 1530.43 717.922 C 1528.52 715.007 1528.59 714.875 1525.77 712.566 C 1514.83 710.06 1500.21 730.605 1495.16 738.812 C 1476.09 720.819 1475.02 696.119 1487.87 673.752 C 1490.36 669.421 1500.8 662.814 1501.43 657.758 C 1502.2 651.639 1498.74 642.392 1499.68 635.922 C 1504.51 606.541 1522.5 584.273 1555.1 588.601 C 1593.16 593.652 1578.57 630.119 1585.09 639.915 C 1590.56 641.633 1594.52 636.711 1595.58 631.916 C 1602.51 600.547 1581.62 583.785 1555.68 575.873 C 1565.82 560.672 1566.21 559.48 1583.62 555.18 z"></path>
<path transform="translate(0,0)" fill="rgb(250,183,20)" d="M 898.665 1088.71 C 902.678 1133.42 872.188 1202.96 844.43 1238.54 C 833.535 1252.51 788.202 1299.79 774.061 1307.5 C 768.909 1307.22 733.1 1323.29 721.846 1327.13 C 696.228 1336.06 669.676 1342.05 642.703 1344.97 C 637.613 1345.56 625.444 1347.52 621.306 1346 C 636.896 1322.36 644.869 1305.74 665.935 1283.99 C 682.532 1266.85 697.722 1252.42 716.04 1237.24 C 734.752 1221.74 779.764 1190.22 786.506 1167.76 C 787.003 1166.29 795.16 1154.73 796.798 1152.15 C 826.503 1141.11 849.487 1131.32 874.53 1110.56 C 882.934 1103.59 890.229 1095.69 898.665 1088.71 z"></path>
<path transform="translate(0,0)" fill="rgb(250,183,20)" d="M 1592.11 1164.2 C 1598.8 1164 1609.85 1162.2 1614.47 1166.73 C 1614.8 1168.26 1615.16 1169.78 1615.56 1171.29 C 1619.85 1187.16 1627.73 1186.36 1640.18 1193.36 C 1646.14 1189.58 1652.03 1185.68 1657.84 1181.68 C 1662.98 1186.1 1671.37 1195.49 1676.22 1200.74 C 1673.94 1206.32 1670.44 1213 1667.69 1218.45 L 1668.83 1223.56 C 1672.29 1239.67 1679.73 1242.72 1694.91 1244.16 C 1694.97 1252.06 1694.88 1259.96 1694.67 1267.86 C 1687.09 1269.41 1684.32 1270.04 1677.18 1272.84 C 1672.99 1278.06 1671.27 1280.98 1668.43 1287.15 C 1663.36 1294.81 1678.3 1310.94 1672.56 1317.71 C 1659.25 1333.42 1652.86 1327.91 1640.46 1321.13 C 1619.46 1328.48 1619.85 1329.25 1613.33 1349.89 C 1605.4 1350.63 1596.52 1350.21 1588.18 1350.74 C 1586.37 1340.55 1585.55 1338.03 1580.9 1329.34 C 1562.27 1320.72 1562.43 1320.12 1544.92 1330 C 1540.54 1327.27 1535.42 1323.57 1531.9 1319.79 C 1528.45 1316.15 1530.83 1310.63 1532.49 1306.71 C 1537.29 1295.37 1540.7 1280.86 1527.61 1273.73 C 1520.82 1270.04 1517.29 1270.23 1509.65 1269.64 C 1508.89 1235.47 1507.92 1250.09 1530.78 1236.82 C 1532.66 1231.09 1534.62 1225.39 1536.66 1219.72 C 1534.19 1212.53 1531.76 1207.36 1528.54 1200.44 C 1534.88 1192.22 1538.37 1188.71 1545.96 1181.85 C 1552.9 1186.79 1556.2 1189.04 1563.72 1192.86 C 1594.67 1181.81 1578.61 1172.35 1592.11 1164.2 z M 1606.45 1300 C 1630.33 1297.31 1647.44 1275.69 1644.57 1251.83 C 1641.7 1227.98 1619.94 1211.04 1596.11 1214.09 C 1572.54 1217.11 1555.82 1238.58 1558.66 1262.17 C 1561.5 1285.77 1582.84 1302.65 1606.45 1300 z"></path>
<path transform="translate(0,0)" fill="rgb(13,112,174)" d="M 828.672 1523.49 C 842.171 1519.97 839.664 1532.17 842.422 1539.58 C 844.906 1546.24 857.84 1550.29 864.109 1552.79 C 869.191 1550.39 876.106 1546.3 881.179 1543.49 C 903.115 1554.94 902.809 1560.01 889.904 1578.77 C 893.087 1583.76 896.959 1593.15 900.388 1599.36 C 906.629 1601.8 913.283 1602.45 917.949 1605.68 C 920.673 1611.86 918.848 1625.24 917.209 1631.73 C 915.117 1633.19 903.563 1634.14 899.541 1634.87 C 896.2 1640.63 890.702 1648.78 891.352 1655.34 C 892.525 1667.19 905.979 1670.57 891.966 1682.93 L 883.777 1690.25 C 877.226 1688.4 874.562 1684.1 870.261 1682.92 C 853.31 1678.28 843.037 1688.13 839.741 1702.76 L 838.388 1708.69 C 835.058 1710.37 832.05 1710 828.25 1710.05 C 809.515 1710.7 811.533 1709.23 808.178 1690.91 C 803.208 1686.86 794.638 1682.75 788.582 1678.98 C 782.636 1682.23 775.917 1685.63 770.529 1689.6 C 763.798 1684.74 756.59 1679.8 751.573 1673.22 C 754.678 1668.67 758.705 1660.61 761.436 1655.51 C 758.141 1645.44 755.636 1633.31 743.887 1631.75 C 740.9 1631.35 738.572 1630.98 736.259 1629.1 C 732.048 1622.34 733.607 1612.29 733.996 1604.15 C 742.708 1602.54 748.193 1602.21 755.94 1597.55 C 757.464 1590.52 759.245 1583.77 761.059 1576.81 C 757.803 1572.45 754.54 1566.24 751.371 1561.39 C 757.364 1553.58 760.289 1548.99 768.992 1544.12 C 776.354 1547.24 779.936 1548.98 786.831 1553 C 807.633 1546.39 808.131 1544.89 814.01 1523.6 C 818.894 1523.69 823.787 1523.57 828.672 1523.49 z M 829.457 1660.34 C 853.202 1658.28 870.843 1637.46 868.97 1613.69 C 867.098 1589.93 846.412 1572.13 822.638 1573.82 C 798.6 1575.53 780.556 1596.49 782.45 1620.51 C 784.343 1644.54 805.448 1662.42 829.457 1660.34 z"></path>
<path transform="translate(0,0)" fill="rgb(111,184,82)" d="M 1788.36 749.68 C 1794.02 758.822 1800.93 791.619 1802.81 802.906 C 1813.28 867.139 1803.71 933.038 1775.4 991.642 C 1763.84 1015.41 1751.24 1034.38 1736.01 1055.77 C 1723.24 1046.75 1715.71 1043.35 1701 1037.61 C 1690.98 1034.48 1674.22 1029.83 1665.71 1025.24 C 1671.89 1018.99 1677.62 1010.74 1682.95 1003.58 C 1712.02 964.526 1731.77 919.261 1738.55 870.965 C 1740.46 857.316 1738.18 834.128 1742.02 824.19 C 1774.54 807.806 1779.07 788.152 1782.99 755.966 C 1783.09 755.146 1787.42 750.642 1788.36 749.68 z"></path>
<path transform="translate(0,0)" fill="rgb(111,184,82)" d="M 1251.13 1492.21 C 1252.99 1492.12 1254.85 1492.07 1256.71 1492.06 C 1283.39 1492.05 1278.83 1503.42 1292.67 1517.99 C 1294.56 1519.98 1307.38 1522.4 1313.47 1529.63 C 1323.49 1541.5 1323.04 1556.35 1322.53 1570.72 C 1336.41 1584.27 1340.12 1604.94 1331.28 1622.68 C 1329.28 1626.3 1323.18 1632.29 1322.49 1636.39 C 1318.14 1662.13 1320.94 1673.22 1293.19 1682.15 C 1275.89 1686.6 1287.02 1705.08 1248.84 1703.72 C 1241.8 1699.79 1236.19 1694.72 1233 1687.15 C 1231.64 1683.93 1231.09 1680.76 1230.89 1677.29 C 1229.89 1660.44 1228.95 1515.16 1231.98 1508.34 C 1235.45 1500.52 1243.49 1495.32 1251.13 1492.21 z M 1241.18 1512.98 C 1241.06 1524.83 1240.5 1540.14 1241.01 1551.71 L 1241.94 1553.01 C 1261.22 1579.58 1265.86 1557.08 1280.34 1561.67 C 1282.78 1564.51 1282.21 1562.9 1282.08 1566.69 C 1274.74 1579.42 1252.42 1573.88 1241.54 1569.55 C 1240.27 1590.57 1241.2 1612.64 1240.92 1633.81 C 1240.69 1651.56 1239.16 1669.81 1243.29 1687.01 C 1257.98 1698.87 1272.63 1696.32 1277.9 1677.03 L 1278.98 1673.17 C 1277.31 1669.16 1274.39 1661.72 1271.76 1658.56 C 1268.17 1654.23 1255.41 1649.33 1254.48 1643.65 C 1258.87 1642.09 1268.62 1644.83 1273.07 1646.6 C 1278.03 1648.57 1280.72 1652.39 1283.73 1656.6 C 1284.29 1660.51 1285 1668.49 1286.72 1671.6 C 1297.31 1678.62 1310.79 1661.87 1312.14 1652.79 C 1314.92 1637.69 1305.72 1622.99 1289.23 1619.06 C 1284.5 1617.93 1273.75 1624.13 1265.6 1622.62 L 1264.25 1621.19 C 1264.84 1607.78 1294.09 1608.98 1301.72 1613.39 C 1306.62 1616.22 1314.29 1626.77 1319.93 1620.93 C 1330.39 1610.09 1324.68 1587.97 1317.04 1578.4 C 1310.78 1584.88 1294.68 1597.2 1285.65 1590.9 L 1283.71 1587.42 C 1285.46 1584.17 1297.8 1581.7 1301.73 1578.37 C 1318.89 1563.81 1315.62 1539.9 1295.74 1529.77 C 1291.54 1527.63 1286.64 1527.15 1282.04 1526.42 C 1274.55 1530.58 1264.28 1544.63 1259.75 1544.09 C 1249.98 1534.65 1271.67 1520.55 1279.14 1516.16 C 1275.67 1509.88 1274.05 1507.9 1269.3 1502.57 C 1262.89 1501.08 1260.77 1500.44 1254 1501.09 C 1248.52 1504.92 1245.34 1507.53 1241.18 1512.98 z"></path>
<path transform="translate(0,0)" fill="rgb(111,184,82)" d="M 1183.8 1492.09 C 1210.81 1490.74 1221.05 1498.67 1220.81 1526.18 C 1220.34 1577.99 1219.96 1629.84 1220.12 1681.64 C 1220.14 1686.03 1215.61 1693.28 1213.16 1697.03 C 1200.53 1703.95 1195.86 1703.62 1181.92 1702.98 C 1175.54 1698.26 1171.98 1695.71 1167.64 1689.04 C 1153.16 1669.11 1130.33 1695.09 1131.04 1632.38 C 1129.46 1630.99 1127.9 1629.58 1126.36 1628.13 C 1107.72 1610.51 1113.88 1586.38 1130.21 1569.82 C 1126.35 1541.65 1134.64 1526.41 1161.93 1517.91 C 1168.71 1502.37 1168.84 1499.19 1183.8 1492.09 z M 1173.23 1517.27 C 1181.22 1522.15 1191.54 1528.51 1194.98 1537.62 C 1192.75 1552.65 1176.59 1530.19 1171.37 1526.56 L 1158.18 1527.04 C 1148.75 1533.67 1148.19 1534.88 1140.56 1543.89 C 1132.29 1586.09 1165.03 1578.34 1167.86 1590.32 C 1160.18 1598.46 1142.37 1584.74 1136.07 1579.53 C 1127.24 1589.14 1124.95 1592.93 1125.49 1606.65 C 1125.55 1608.15 1125.63 1609.66 1125.72 1611.16 C 1128.29 1615.19 1131.17 1620.76 1134.98 1623.15 C 1140.88 1623.02 1143.56 1618.16 1147.32 1613.85 C 1158.26 1610.41 1182.93 1605.75 1187.3 1620.21 L 1186.84 1622.71 C 1178.99 1628.05 1168.54 1614.05 1154.89 1622.75 C 1140.25 1632.08 1137.86 1641.14 1141.07 1657.05 C 1142.99 1660.51 1157.65 1679.5 1161.91 1673.3 C 1169.04 1662.92 1174.5 1636.09 1193.21 1645.16 C 1193.77 1651.51 1171.4 1661.21 1173.37 1674.82 C 1176.01 1693 1190.49 1697.35 1205.6 1689.82 L 1210.93 1682.48 L 1210.92 1569.63 C 1200.92 1573.25 1174.82 1580.13 1171.01 1566.03 C 1171.89 1564.49 1171.83 1563.78 1173.39 1563.69 C 1190.74 1562.65 1189.77 1568.76 1205.5 1559.67 C 1210.41 1551.21 1210.5 1546.18 1211.03 1536.64 C 1212.07 1517.59 1211.19 1500.84 1187.66 1502.1 C 1178.18 1506.81 1178.01 1508.08 1173.23 1517.27 z"></path>
<path transform="translate(0,0)" fill="rgb(111,184,82)" d="M 595.906 1142.14 C 605.007 1143.18 614.485 1145.34 623.737 1146.59 C 643.551 1149.28 658.541 1148.83 678.001 1146.8 C 703.704 1162.5 762.747 1160.36 792.419 1153.23 C 793.881 1152.88 795.341 1152.52 796.798 1152.15 C 795.16 1154.73 787.003 1166.29 786.506 1167.76 C 779.954 1170.98 769.904 1182.45 763.439 1187.28 C 735.345 1208.65 714.577 1221.78 680.359 1233.12 C 663.632 1238.66 627.427 1233.72 609.967 1229.61 C 604.823 1228.4 606.091 1191.71 605.238 1183.78 C 603.772 1170.14 599.296 1156.34 595.906 1142.14 z"></path>
<path transform="translate(0,0)" fill="rgb(13,112,174)" d="M 368.556 503.249 C 378.011 502.947 388.414 503.126 397.947 503.091 C 398.581 509.05 398.464 512.088 398.243 517.944 C 388.113 517.808 377.982 517.912 367.857 518.257 C 366.346 555.509 369.575 592.712 368.975 629.975 C 368.551 656.3 369.228 682.931 369.074 709.277 C 369.018 718.863 367.498 746.968 369.868 754.472 C 378.809 757.355 429.573 756.345 442.085 756.189 C 476.928 755.754 515.656 757.642 550.076 756.603 C 549.51 703.348 550.892 649.475 550.306 596.172 C 550.031 571.145 550.908 543.939 549.501 519.105 C 539.598 518.359 528.802 518.017 518.959 519.279 L 518.651 503.595 C 522.85 503.98 528.198 503.932 532.5 504.014 L 553.024 504.035 C 558.103 508.067 559.475 509.07 563.582 514.412 C 563.652 515.265 563.7 516.119 563.726 516.975 C 565.192 566.879 564.714 622.059 565.087 672.389 L 565.17 728.048 C 565.127 740.489 568.803 769.386 551.159 770.538 C 489.225 774.58 427.457 771.083 365.348 771.221 C 361.602 768.731 357.352 766.401 355.266 762.232 C 352.908 757.521 352.381 548.635 353.381 524.617 C 353.533 520.968 353.613 517.258 355.157 513.874 C 357.794 508.095 362.831 505.306 368.556 503.249 z"></path>
<path transform="translate(0,0)" fill="rgb(13,112,174)" d="M 448.68 787.828 C 457.273 786.944 487.462 784.625 493.461 790.086 C 503.969 801.069 505.079 823.611 506.044 838.018 C 507.899 865.714 499.903 892.45 481.31 913.873 C 459.048 939.523 417.386 946.942 388.841 927.246 C 385.708 925.084 380.313 918.209 380.24 914.114 C 385.423 908.353 403.213 911.251 411.427 910.344 C 443.647 906.787 461.159 874.324 459.059 844.372 C 457.621 823.873 449.533 811.052 437.197 795.142 C 434.455 793.292 431.291 790.256 428.75 788.005 L 448.68 787.828 z"></path>
<path transform="translate(0,0)" fill="rgb(111,184,82)" d="M 1542.41 842.38 C 1544.25 843.233 1551.06 847.886 1552.99 849.156 C 1568.41 859.315 1572.66 859.586 1590.42 858.867 C 1594.86 887.924 1610.36 909.061 1641.43 912.733 C 1649.1 913.639 1666 905.068 1669.62 913.438 C 1668.08 920.382 1666.33 921.355 1660.48 925.617 C 1633.68 942.75 1595.57 940.843 1572.35 918.58 C 1549.06 896.243 1543.46 873.516 1542.41 842.38 z"></path>
<path transform="translate(0,0)" fill="rgb(13,112,174)" d="M 450.666 470.117 C 460.971 469.388 462.835 469.592 472.29 473.412 C 478.164 481.173 479.47 483.327 481.637 492.396 C 489.023 493.168 498.364 492.99 505.931 493.051 C 506.789 505.276 506.821 515.925 506.84 528.169 C 491.816 528.759 476.785 529.108 461.75 529.217 C 450.357 529.373 420.224 529.345 410.106 527.591 C 409.041 524.596 409.879 499.669 410.696 495.674 C 414.866 490.919 425.786 493.367 434.363 492.653 L 435.617 492.539 C 437.55 485.668 439.612 481.09 443.034 474.919 L 450.666 470.117 z M 463.387 498.857 C 466.22 496.044 468.637 494.734 468.473 490.362 C 468.165 482.18 462.464 478.734 455.018 479.189 C 442.461 487.05 447.71 499.973 463.387 498.857 z"></path>
<path transform="translate(0,0)" fill="rgb(30,106,155)" d="M 450.882 566.493 C 473.623 564.353 501.81 566.915 524.989 566.368 C 529.122 566.27 528.297 574.238 527.456 576.931 L 524.164 577.971 C 501.41 576.639 473.154 577.468 449.451 577.071 C 449.484 573.469 449.045 569.375 450.882 566.493 z"></path>
<path transform="translate(0,0)" fill="rgb(30,106,155)" d="M 526.457 663.046 C 526.689 666.744 527.509 670.573 525.709 673.579 L 523.25 674.117 C 512.749 674.415 457.837 675.82 450.083 673.307 C 448.709 670.042 449.592 666.881 450.052 663.233 C 475.089 662.825 501.205 663.264 526.457 663.046 z"></path>
<path transform="translate(0,0)" fill="rgb(30,106,155)" d="M 450.446 711.594 C 473.26 712.545 504.474 710.256 526.053 712.048 C 527.679 714.871 527.3 719.368 527.347 722.843 C 518.252 723.108 455.284 723.851 451.055 722.136 C 449.562 718.637 450.183 715.437 450.446 711.594 z"></path>
<path transform="translate(0,0)" fill="rgb(46,155,209)" d="M 392.635 701.989 L 420.954 702.202 L 421.009 729.537 C 411.657 729.487 402.305 729.692 392.965 730.153 C 392.47 719.819 392.335 712.366 392.635 701.989 z"></path>
<path transform="translate(0,0)" fill="rgb(30,106,155)" d="M 501.123 615.545 C 509.085 616.262 522.127 612.277 526.789 618.393 C 526.926 622.469 527.512 622.085 525.913 625.257 C 518.232 626.568 490.472 625.858 481.25 625.799 C 475.973 625.723 453.735 626.464 450.71 625.102 C 446.666 615.829 457.6 615.607 463.924 615.614 C 476.365 615.628 488.675 615.879 501.123 615.545 z"></path>
<path transform="translate(0,0)" fill="rgb(30,106,155)" d="M 427.117 552.629 C 430.669 553.205 431.795 554.304 433.049 557.405 C 431.827 564.259 410.309 585.855 404.223 586.007 C 400.235 584.175 398.773 582.019 395.788 578.731 C 391.514 574.3 389.523 573.528 391.05 567.464 C 397.985 563.42 401.655 570.416 405.263 575.28 C 412.71 567.796 419.821 560.241 427.117 552.629 z"></path>
<path transform="translate(0,0)" fill="rgb(46,155,209)" d="M 428.01 649.665 C 429.502 650.603 433.572 653.047 432.696 655.142 C 428.735 664.615 414.459 678.52 406.079 683.497 C 402.195 681.029 399.303 678.619 395.732 675.762 C 392.233 672.383 387.994 669.106 391.551 664.398 C 398.846 663.585 400.877 667.01 405.653 671.751 C 413.18 664.464 420.632 657.102 428.01 649.665 z"></path>
<path transform="translate(0,0)" fill="rgb(30,106,155)" d="M 427.322 600.624 C 430.78 602.569 432.08 603.403 433.324 606.704 C 429.676 612.462 412.353 631.567 407.036 636.341 C 403.281 633.871 400.191 630.749 396.88 627.689 C 393.763 625.127 389.226 621.834 391.607 617.71 C 398.563 616.589 401.255 620.002 406.502 624.008 C 410.41 618.702 421.631 607.551 427.322 600.624 z"></path>
<path transform="translate(0,0)" fill="rgb(0,0,0)" fill-opacity="0.0117647" d="M 419.772 596.137 L 420.185 597.457 C 418.845 600.348 417.973 602.985 416.513 605.76 L 414.428 606.297 L 412.698 610.111 C 412.673 605.065 411.188 605.048 414.489 600.092 L 414.323 599.698 C 416.141 598.214 417.773 597.324 419.772 596.137 z"></path>
<path transform="translate(0,0)" fill="rgb(0,0,0)" fill-opacity="0.0117647" d="M 724.195 1624.46 C 726.472 1626.89 725.633 1625.47 726.362 1629.08 L 725.012 1630.49 L 723.443 1630.77 C 724.876 1627.62 724.838 1627.86 724.195 1624.46 z"></path>
</svg><style>@media (prefers-color-scheme: light) { :root { filter: none; } }
@media (prefers-color-scheme: dark) { :root { filter: none; } }
</style></svg>